<mxfile host="app.diagrams.net" modified="2022-11-08T12:52:19.886Z" agent="5.0 (Windows NT 10.0; Win64; x64) AppleWebKit/537.36 (KHTML, like Gecko) Chrome/107.0.0.0 Safari/537.36" etag="YBExKxuf9UN7lm1zuNMj" version="20.5.3" type="github">
  <diagram id="PFlxKzxN-3p6qCGkm3TL" name="第 1 页">
    <mxGraphModel dx="1497" dy="801" grid="1" gridSize="10" guides="1" tooltips="1" connect="1" arrows="1" fold="1" page="1" pageScale="1" pageWidth="827" pageHeight="1169" math="0" shadow="0">
      <root>
        <mxCell id="0" />
        <mxCell id="1" parent="0" />
        <mxCell id="f7PRCuZJjPYEiNRIWuI5-7" style="edgeStyle=none;rounded=0;orthogonalLoop=1;jettySize=auto;html=1;exitX=1;exitY=0.5;exitDx=0;exitDy=0;entryX=0;entryY=0.5;entryDx=0;entryDy=0;" edge="1" parent="1" source="f7PRCuZJjPYEiNRIWuI5-4" target="f7PRCuZJjPYEiNRIWuI5-5">
          <mxGeometry relative="1" as="geometry" />
        </mxCell>
        <mxCell id="f7PRCuZJjPYEiNRIWuI5-4" value="阿斯顿" style="rounded=0;whiteSpace=wrap;html=1;" vertex="1" parent="1">
          <mxGeometry x="100" y="350" width="120" height="60" as="geometry" />
        </mxCell>
        <mxCell id="f7PRCuZJjPYEiNRIWuI5-5" value="" style="rounded=0;whiteSpace=wrap;html=1;" vertex="1" parent="1">
          <mxGeometry x="440" y="350" width="120" height="60" as="geometry" />
        </mxCell>
      </root>
    </mxGraphModel>
  </diagram>
</mxfile>
